<?xml version="1.0" encoding="iso-8859-1"?>
<!-- Generator: Adobe Illustrator 19.0.0, SVG Export Plug-In . SVG Version: 6.00 Build 0)  -->
<svg version="1.1" id="Capa_1" xmlns="http://www.w3.org/2000/svg" xmlns:xlink="http://www.w3.org/1999/xlink" x="0px" y="0px"
	 viewBox="0 0 512 512" style="enable-background:new 0 0 512 512;" xml:space="preserve">
<path style="fill:#DCE1EB;" d="M500.063,305.4l-42.001-84C456.262,98.1,355.763,0,233.062,0c-14.7,0-29.7,1.5-45,4.501
	C99.261,21.599,28.462,92.999,11.962,182.1c-11.4,62.699,2.401,125.099,39.3,175.499C81.863,399.6,98.062,449,98.062,497
	c0,8.401,6.599,15,15,15h210c8.401,0,15-6.599,15-15v-39.2c0-4.2,3.6-7.8,7.8-7.8h67.2c24.901,0,45-20.099,45-45v-45h8.101
	c13.2,0,25.199-6.599,32.1-17.999C505.162,330.901,505.763,317.1,500.063,305.4z"/>
<path style="fill:#CDD2E1;" d="M498.263,342.001c-6.901,11.4-18.9,17.999-32.1,17.999h-8.101v45c0,24.901-20.099,45-45,45h-67.2
	c-4.2,0-7.8,3.6-7.8,7.8V497c0,8.401-6.599,15-15,15h-90V0c122.701,0,223.2,98.101,225,221.4l42.001,84
	C505.763,317.1,505.162,330.901,498.263,342.001z"/>
<path style="fill:#19CFFC;" d="M233.062,90c-74.399,0-135,60.601-135,135s60.601,135,135,135s135-60.601,135-135
	S307.461,90,233.062,90z"/>
<path style="fill:#4A7AFF;" d="M368.062,225c0,74.399-60.601,135-135,135V90C307.461,90,368.062,150.601,368.062,225z"/>
<g>
	<path style="fill:#F2F6FC;" d="M248.062,285c0,8.399-6.599,15-15,15s-15-6.601-15-15c0-8.401,6.599-15,15-15
		S248.062,276.599,248.062,285z"/>
	<path style="fill:#F2F6FC;" d="M278.062,195c0,16.8-9.3,32.1-24,39.899c-3.6,1.802-6,6.601-6,12.001c0,8.101-6.599,15-15,15
		s-15-6.899-15-15c0-13.5,5.4-25.8,15-33.9c2.1-1.8,4.501-3.6,6.899-4.799c5.101-2.401,8.101-7.5,8.101-13.2c0-8.401-6.599-15-15-15
		s-15,6.599-15,15c0,8.399-6.599,15-15,15s-15-6.601-15-15c0-24.901,20.099-45,45-45S278.062,170.099,278.062,195z"/>
</g>
<g>
	<path style="fill:#DCE1EB;" d="M248.062,285c0,8.399-6.599,15-15,15v-30C241.463,270,248.062,276.599,248.062,285z"/>
	<path style="fill:#DCE1EB;" d="M278.062,195c0,16.8-9.3,32.1-24,39.899c-3.6,1.802-6,6.601-6,12.001c0,8.101-6.599,15-15,15V213
		c2.1-1.8,4.501-3.6,6.899-4.799c5.101-2.401,8.101-7.5,8.101-13.2c0-8.401-6.599-15-15-15v-30
		C257.962,150,278.062,170.099,278.062,195z"/>
</g>
<g>
</g>
<g>
</g>
<g>
</g>
<g>
</g>
<g>
</g>
<g>
</g>
<g>
</g>
<g>
</g>
<g>
</g>
<g>
</g>
<g>
</g>
<g>
</g>
<g>
</g>
<g>
</g>
<g>
</g>
</svg>
